Coordinates
version=1
nRows=9
nColumns=24
inDegrees=yes

Units are S.I. units (second, meters, Newtons, ...)
Angles are in degrees.

endheader
time	pelvis_tilt	pelvis_list	pelvis_rotation	pelvis_tx	pelvis_ty	pelvis_tz	hip_flexion_r	hip_adduction_r	hip_rotation_r	knee_angle_r	ankle_angle_r	subtalar_angle_r	mtp_angle_r	hip_flexion_l	hip_adduction_l	hip_rotation_l	knee_angle_l	ankle_angle_l	subtalar_angle_l	mtp_angle_l	lumbar_extension	lumbar_bending	lumbar_rotation
      0.52900000	     -3.96880371	     -0.06407544	     -1.25512500	     -0.76670840	      1.05306360	      0.28609067	     26.20732964	      0.56501834	     -5.83143070	     -6.96986179	      6.08221023	      2.31792602	     13.14990368	     -9.50577939	      1.57808983	      1.59552853	     -9.20877488	     18.70653542	      5.85991660	      5.15389194	     -6.31765461	      0.83649385	     -4.11068645
      0.53316667	     -3.89260711	     -0.09479923	     -1.16489368	     -0.76049044	      1.05225158	      0.28631388	     26.10804346	      0.63571053	     -5.64396102	     -7.09526004	      6.02740446	      2.11023134	     13.13948154	     -9.64315949	      1.51778790	      1.54447437	     -9.86268881	     18.88449286	      6.06544207	      5.22583345	     -6.36891296	      0.92102901	     -4.16031803
      0.53733333	     -3.80756513	     -0.13059045	     -1.07415483	     -0.75423784	      1.05150134	      0.28653218	     25.99621256	      0.71085358	     -5.43329441	     -7.29270353	      5.93904797	      1.84416597	     13.13429928	     -9.76086283	      1.44607577	      1.44178246	    -10.57806489	     19.05390495	      6.35079169	      5.33737600	     -6.42447526	      1.01381220	     -4.18291953
      0.54150000	     -3.70941630	     -0.16413076	     -0.98199595	     -0.74798842	      1.05081316	      0.28676158	     25.87443269	      0.78386491	     -5.21288136	     -7.56623595	      5.82132829	      1.53550788	     13.13270261	     -9.85405961	      1.37015488	      1.30800249	    -11.37042674	     19.21122070	      6.68191403	      5.48615651	     -6.49382545	      1.10698522	     -4.20917658
      0.54566667	     -3.60496384	     -0.21036450	     -0.89800944	     -0.74170284	      1.05016979	      0.28699676	     25.74868545	      0.87163139	     -4.98205834	     -7.91161108	      5.65766594	      1.18010061	     13.13549644	     -9.93236776	      1.27489146	      1.13268900	    -12.21606759	     19.34123467	      7.06516844	      5.68533259	     -6.56871498	      1.22410695	     -4.22414554
      0.54983333	     -3.51730756	     -0.25422909	     -0.81091225	     -0.73539127	      1.04953680	      0.28723923	     25.64279956	      0.95613905	     -4.74642098	     -8.31981474	      5.46067144	      0.78866423	     13.14272984	     -9.95426288	      1.17213455	      0.92095215	    -13.13798982	     19.45471213	      7.50259160	      5.92939812	     -6.61317309	      1.33667766	     -4.23485151
      0.55400000	     -3.39569253	     -0.30764378	     -0.71945222	     -0.72907366	      1.04901148	      0.28748093	     25.49415247	      1.04824498	     -4.50540997	     -8.76734130	      5.22570911	      0.36480703	     13.15093167	     -9.97525879	      1.04903291	      0.67869443	    -14.13379805	     19.53651618	      7.98812422	      6.20357878	     -6.70277164	      1.45929838	     -4.24076792
      0.55816667	     -3.32940929	     -0.34999737	     -0.64242058	     -0.72271395	      1.04841733	      0.28774551	     25.43504003	      1.12905075	     -4.31111397	     -9.32655823	      4.98713790	      0.00463369	     13.31023946	     -9.90602176	      0.92732334	      0.37855977	    -15.18781755	     19.52903094	      8.50614773	      9.27085689	     -6.71308823	      1.57764325	     -4.18496446
      0.56233333	     -3.17025393	     -0.41086044	     -0.55585394	     -0.71639121	      1.04804361	      0.28802593	     25.23916804	      1.23401257	     -4.03034938	     -9.84050269	      4.65750852	     -0.53771860	     13.29984684	     -9.90678908	      0.77591233	      0.08671305	    -16.30265112	     19.52628447	      9.03964711	      9.35661833	     -6.85061214	      1.71521879	     -4.23929878
